<svg xmlns="http://www.w3.org/2000/svg" xmlns:xlink="http://www.w3.org/1999/xlink" version="1.1" id="Calque_1" x="0px" y="0px" width="100px" height="100px" viewBox="0 0 100 100" enable-background="new 0 0 100 100" xml:space="preserve">
<g>
	<path fill="#000000" d="M44.98,63.572c-1.028,0-2.055-0.387-2.845-1.163L26.045,46.626c-1.602-1.571-1.627-4.144-0.056-5.746   c1.571-1.602,4.145-1.626,5.746-0.055L44.98,53.817l43.112-42.293c1.601-1.571,4.174-1.547,5.746,0.055s1.547,4.175-0.056,5.746   L47.825,62.409C47.035,63.185,46.007,63.572,44.98,63.572z"/>
</g>
<g>
	<path d="M44.329,89.639C22.643,89.639,5,72.297,5,50.98s17.643-38.659,39.329-38.659c5.298,0,10.44,1.019,15.285,3.029   c2.072,0.86,3.055,3.237,2.195,5.31c-0.86,2.073-3.234,3.058-5.31,2.196c-3.852-1.598-7.946-2.409-12.17-2.409   c-17.205,0-31.202,13.697-31.202,30.532s13.997,30.532,31.202,30.532S75.531,67.816,75.531,50.98c0-2.244,1.819-4.063,4.063-4.063   s4.063,1.819,4.063,4.063C83.658,72.297,66.015,89.639,44.329,89.639z"/>
</g>
</svg>