<svg xmlns="http://www.w3.org/2000/svg" xmlns:xlink="http://www.w3.org/1999/xlink" version="1.1" id="Layer_1" x="0px" y="0px" width="96px" height="96px" viewBox="0 0 96 96" enable-background="new 0 0 96 96" xml:space="preserve">
<path d="M48,0C21.532,0,0,21.532,0,48s21.532,48,48,48s48-21.532,48-48S74.468,0,48,0z M53.332,59.468  c-0.02,0.021-0.027,0.048-0.053,0.068l-12,10C40.904,69.848,40.452,70,40,70c-0.576,0-1.144-0.252-1.54-0.721  c-0.708-0.852-0.592-2.107,0.252-2.819l7.76-6.46H25.828c-6.572,0-12.332-5.607-12.332-12c0-6.728,4.98-12,11.332-12  c1.104,0,2,0.9,2,2s-0.896,2-2,2c-4.112,0-7.332,3.516-7.332,8c0,4.256,3.892,8,8.332,8h20.644l-7.756-6.464  c-0.848-0.708-0.964-1.964-0.252-2.816c0.708-0.844,1.964-0.96,2.82-0.252l12,10c0.021,0.024,0.032,0.052,0.052,0.072  c0.148,0.132,0.252,0.292,0.355,0.46c0.041,0.076,0.097,0.124,0.129,0.195c0.111,0.253,0.18,0.521,0.18,0.813  c0,0.288-0.068,0.568-0.18,0.813c-0.032,0.076-0.088,0.128-0.129,0.195C53.584,59.176,53.48,59.336,53.332,59.468z M72.168,59.664  c-1.104,0-2-0.9-2-2s0.896-2,2-2c4.32,0,7.832-3.516,7.832-7.832C80,43.516,76.488,40,72.168,40H49.523l7.756,6.46  c0.849,0.712,0.961,1.968,0.253,2.82c-0.396,0.468-0.964,0.72-1.54,0.72c-0.452,0-0.904-0.152-1.28-0.464l-12-10  c-0.024-0.02-0.032-0.048-0.052-0.068c-0.148-0.132-0.256-0.292-0.356-0.46c-0.04-0.072-0.096-0.116-0.128-0.196  C42.068,38.564,42,38.288,42,38c0-0.292,0.068-0.564,0.18-0.812c0.032-0.072,0.088-0.124,0.128-0.196  c0.096-0.168,0.212-0.328,0.356-0.46c0.02-0.02,0.028-0.048,0.052-0.072l12-10c0.853-0.704,2.108-0.588,2.82,0.256  c0.708,0.852,0.592,2.104-0.252,2.812l-7.757,6.464h22.645c6.523,0,11.832,5.308,11.832,11.832  C84.004,54.348,78.691,59.664,72.168,59.664z"/>
</svg>