<svg xmlns="http://www.w3.org/2000/svg" xmlns:xlink="http://www.w3.org/1999/xlink" version="1.0" x="0px" y="0px" width="100px" height="100px" viewBox="0 0 100 100" overflow="" enable-background="new 0 0 100 100" xml:space="preserve">
    <path d="M96.643,75.999L58.812,10.5l-0.013,0.007c-0.474-0.963-1.086-1.867-1.885-2.668 c-3.817-3.815-10.008-3.815-13.826,0c-0.693,0.692-1.262,1.467-1.693,2.287v-0.006L3.59,75.634v0.014 c-0.597,0.876-1.071,1.865-1.356,2.953C0.835,83.82,3.93,89.185,9.145,90.576c0.938,0.252,1.887,0.353,2.824,0.325l75.643-0.013 v-0.008c3.623,0.251,7.237-1.506,9.181-4.854C98.65,82.797,98.474,78.953,96.643,75.999z M54.481,76.312 c-1.302,1.229-2.826,1.848-4.562,1.848c-1.767,0-3.313-0.619-4.603-1.848c-1.303-1.242-1.955-2.716-1.955-4.435 c0-1.709,0.652-3.189,1.955-4.452c1.289-1.263,2.836-1.881,4.603-1.881c1.736,0,3.261,0.618,4.562,1.881 c1.304,1.263,1.956,2.743,1.956,4.452C56.438,73.597,55.785,75.07,54.481,76.312z M56.043,38.009 c-0.326,1.535-0.749,3.328-1.248,5.391c-0.477,1.942-1.034,4.372-1.632,7.287c-0.625,2.902-1.262,6.502-1.954,10.778H48.59 c-0.68-4.324-1.333-7.923-1.957-10.803c-0.608-2.87-1.152-5.286-1.629-7.236c-0.435-1.785-0.826-3.528-1.193-5.247 c-0.366-1.712-0.543-2.995-0.543-3.864c0-1.731,0.638-3.217,1.939-4.459c1.303-1.238,2.854-1.848,4.673-1.848 c1.792,0,3.351,0.61,4.668,1.848c1.332,1.242,1.999,2.728,1.999,4.459C56.547,35.252,56.37,36.481,56.043,38.009z"/>
</svg>